<mxfile host="65bd71144e">
    <diagram id="2iks5ba9nHYWB-dds5Bb" name="Page-1">
        <mxGraphModel dx="1707" dy="1361" grid="1" gridSize="10" guides="1" tooltips="1" connect="1" arrows="1" fold="1" page="1" pageScale="1" pageWidth="850" pageHeight="1100" math="0" shadow="0">
            <root>
                <mxCell id="0"/>
                <mxCell id="1" parent="0"/>
                <mxCell id="KuXRLgFttOdv6xOlEkm7-28" style="edgeStyle=orthogonalEdgeStyle;rounded=0;orthogonalLoop=1;jettySize=auto;html=1;" parent="1" source="LWB3FQmhy0f-1E5tpVHv-1" target="Kl3lhlv03-v8a5bvzwpP-1" edge="1">
                    <mxGeometry relative="1" as="geometry">
                        <Array as="points">
                            <mxPoint x="250" y="386"/>
                        </Array>
                    </mxGeometry>
                </mxCell>
                <mxCell id="Kl3lhlv03-v8a5bvzwpP-5" value="Uses" style="edgeLabel;html=1;align=center;verticalAlign=middle;resizable=0;points=[];" parent="KuXRLgFttOdv6xOlEkm7-28" vertex="1" connectable="0">
                    <mxGeometry x="-0.3352" y="4" relative="1" as="geometry">
                        <mxPoint as="offset"/>
                    </mxGeometry>
                </mxCell>
                <mxCell id="LWB3FQmhy0f-1E5tpVHv-1" value="Zoo" style="swimlane;fontStyle=1;align=center;verticalAlign=top;childLayout=stackLayout;horizontal=1;startSize=26;horizontalStack=0;resizeParent=1;resizeParentMax=0;resizeLast=0;collapsible=1;marginBottom=0;" parent="1" vertex="1">
                    <mxGeometry x="570" y="252" width="350" height="268" as="geometry"/>
                </mxCell>
                <mxCell id="LWB3FQmhy0f-1E5tpVHv-2" value="&lt;&lt;-set, +get&gt;&gt; Enclosures: List&lt;Enclosure&gt;" style="text;strokeColor=none;fillColor=none;align=left;verticalAlign=top;spacingLeft=4;spacingRight=4;overflow=hidden;rotatable=0;points=[[0,0.5],[1,0.5]];portConstraint=eastwest;" parent="LWB3FQmhy0f-1E5tpVHv-1" vertex="1">
                    <mxGeometry y="26" width="350" height="26" as="geometry"/>
                </mxCell>
                <mxCell id="5lg895d2sWfJ2j3XGG5V-32" value="&lt;&lt;-set, +get&gt;&gt; Employees: List&lt;IEmployees&gt;" style="text;strokeColor=none;fillColor=none;align=left;verticalAlign=top;spacingLeft=4;spacingRight=4;overflow=hidden;rotatable=0;points=[[0,0.5],[1,0.5]];portConstraint=eastwest;" parent="LWB3FQmhy0f-1E5tpVHv-1" vertex="1">
                    <mxGeometry y="52" width="350" height="26" as="geometry"/>
                </mxCell>
                <mxCell id="5lg895d2sWfJ2j3XGG5V-12" value="&lt;&lt;-set, +get&gt;&gt;Location: string" style="text;strokeColor=none;fillColor=none;align=left;verticalAlign=top;spacingLeft=4;spacingRight=4;overflow=hidden;rotatable=0;points=[[0,0.5],[1,0.5]];portConstraint=eastwest;" parent="LWB3FQmhy0f-1E5tpVHv-1" vertex="1">
                    <mxGeometry y="78" width="350" height="26" as="geometry"/>
                </mxCell>
                <mxCell id="LWB3FQmhy0f-1E5tpVHv-3" value="" style="line;strokeWidth=1;fillColor=none;align=left;verticalAlign=middle;spacingTop=-1;spacingLeft=3;spacingRight=3;rotatable=0;labelPosition=right;points=[];portConstraint=eastwest;" parent="LWB3FQmhy0f-1E5tpVHv-1" vertex="1">
                    <mxGeometry y="104" width="350" height="8" as="geometry"/>
                </mxCell>
                <mxCell id="5lg895d2sWfJ2j3XGG5V-33" value="+ AddEnclosure(string name, int squreFeet): Enclosure" style="text;strokeColor=none;fillColor=none;align=left;verticalAlign=top;spacingLeft=4;spacingRight=4;overflow=hidden;rotatable=0;points=[[0,0.5],[1,0.5]];portConstraint=eastwest;" parent="LWB3FQmhy0f-1E5tpVHv-1" vertex="1">
                    <mxGeometry y="112" width="350" height="26" as="geometry"/>
                </mxCell>
                <mxCell id="jl_lPzITlCrjGEIheyMD-15" value="+ FindAvailableEnclosure(Animal animal): Enclosure" style="text;strokeColor=none;fillColor=none;align=left;verticalAlign=top;spacingLeft=4;spacingRight=4;overflow=hidden;rotatable=0;points=[[0,0.5],[1,0.5]];portConstraint=eastwest;" parent="LWB3FQmhy0f-1E5tpVHv-1" vertex="1">
                    <mxGeometry y="138" width="350" height="26" as="geometry"/>
                </mxCell>
                <mxCell id="5lg895d2sWfJ2j3XGG5V-13" value="+ HireEmployee(IEmployee): void" style="text;strokeColor=none;fillColor=none;align=left;verticalAlign=top;spacingLeft=4;spacingRight=4;overflow=hidden;rotatable=0;points=[[0,0.5],[1,0.5]];portConstraint=eastwest;" parent="LWB3FQmhy0f-1E5tpVHv-1" vertex="1">
                    <mxGeometry y="164" width="350" height="26" as="geometry"/>
                </mxCell>
                <mxCell id="Kl3lhlv03-v8a5bvzwpP-35" value="+ FeedAnimals(DateTime): void" style="text;strokeColor=none;fillColor=none;align=left;verticalAlign=top;spacingLeft=4;spacingRight=4;overflow=hidden;rotatable=0;points=[[0,0.5],[1,0.5]];portConstraint=eastwest;" parent="LWB3FQmhy0f-1E5tpVHv-1" vertex="1">
                    <mxGeometry y="190" width="350" height="26" as="geometry"/>
                </mxCell>
                <mxCell id="5lg895d2sWfJ2j3XGG5V-19" value="+ HealAnimals(): void" style="text;strokeColor=none;fillColor=none;align=left;verticalAlign=top;spacingLeft=4;spacingRight=4;overflow=hidden;rotatable=0;points=[[0,0.5],[1,0.5]];portConstraint=eastwest;" parent="LWB3FQmhy0f-1E5tpVHv-1" vertex="1">
                    <mxGeometry y="216" width="350" height="26" as="geometry"/>
                </mxCell>
                <mxCell id="axv5saNoCyAQvxqAIwqC-1" value="+ AddAnimal(Animal): Enclosure" style="text;strokeColor=none;fillColor=none;align=left;verticalAlign=top;spacingLeft=4;spacingRight=4;overflow=hidden;rotatable=0;points=[[0,0.5],[1,0.5]];portConstraint=eastwest;" parent="LWB3FQmhy0f-1E5tpVHv-1" vertex="1">
                    <mxGeometry y="242" width="350" height="26" as="geometry"/>
                </mxCell>
                <mxCell id="LWB3FQmhy0f-1E5tpVHv-5" value="ZooApp" style="swimlane;fontStyle=1;align=center;verticalAlign=top;childLayout=stackLayout;horizontal=1;startSize=26;horizontalStack=0;resizeParent=1;resizeParentMax=0;resizeLast=0;collapsible=1;marginBottom=0;" parent="1" vertex="1">
                    <mxGeometry x="425" y="110" width="160" height="86" as="geometry"/>
                </mxCell>
                <mxCell id="LWB3FQmhy0f-1E5tpVHv-6" value="- _zoos: List&lt;Zoo&gt;" style="text;strokeColor=none;fillColor=none;align=left;verticalAlign=top;spacingLeft=4;spacingRight=4;overflow=hidden;rotatable=0;points=[[0,0.5],[1,0.5]];portConstraint=eastwest;" parent="LWB3FQmhy0f-1E5tpVHv-5" vertex="1">
                    <mxGeometry y="26" width="160" height="26" as="geometry"/>
                </mxCell>
                <mxCell id="LWB3FQmhy0f-1E5tpVHv-7" value="" style="line;strokeWidth=1;fillColor=none;align=left;verticalAlign=middle;spacingTop=-1;spacingLeft=3;spacingRight=3;rotatable=0;labelPosition=right;points=[];portConstraint=eastwest;" parent="LWB3FQmhy0f-1E5tpVHv-5" vertex="1">
                    <mxGeometry y="52" width="160" height="8" as="geometry"/>
                </mxCell>
                <mxCell id="LWB3FQmhy0f-1E5tpVHv-8" value="+ AddZoo(Zoo zoo): void" style="text;strokeColor=none;fillColor=none;align=left;verticalAlign=top;spacingLeft=4;spacingRight=4;overflow=hidden;rotatable=0;points=[[0,0.5],[1,0.5]];portConstraint=eastwest;" parent="LWB3FQmhy0f-1E5tpVHv-5" vertex="1">
                    <mxGeometry y="60" width="160" height="26" as="geometry"/>
                </mxCell>
                <mxCell id="LWB3FQmhy0f-1E5tpVHv-12" value="&lt;&lt;abstract&gt;&gt; Animal" style="swimlane;fontStyle=1;align=center;verticalAlign=top;childLayout=stackLayout;horizontal=1;startSize=26;horizontalStack=0;resizeParent=1;resizeParentMax=0;resizeLast=0;collapsible=1;marginBottom=0;" parent="1" vertex="1">
                    <mxGeometry x="400" y="580" width="320" height="294" as="geometry"/>
                </mxCell>
                <mxCell id="LWB3FQmhy0f-1E5tpVHv-13" value="&lt;&lt;abstract&gt;&gt; &lt;&lt;+get&gt;&gt; RequiredSpaceSqFt(): int]" style="text;strokeColor=none;fillColor=none;align=left;verticalAlign=top;spacingLeft=4;spacingRight=4;overflow=hidden;rotatable=0;points=[[0,0.5],[1,0.5]];portConstraint=eastwest;" parent="LWB3FQmhy0f-1E5tpVHv-12" vertex="1">
                    <mxGeometry y="26" width="320" height="26" as="geometry"/>
                </mxCell>
                <mxCell id="LWB3FQmhy0f-1E5tpVHv-40" value="&lt;&lt;abstract&gt;&gt; &lt;&lt;+get&gt;&gt; FavoriteFood(): string[]" style="text;strokeColor=none;fillColor=none;align=left;verticalAlign=top;spacingLeft=4;spacingRight=4;overflow=hidden;rotatable=0;points=[[0,0.5],[1,0.5]];portConstraint=eastwest;" parent="LWB3FQmhy0f-1E5tpVHv-12" vertex="1">
                    <mxGeometry y="52" width="320" height="26" as="geometry"/>
                </mxCell>
                <mxCell id="5lg895d2sWfJ2j3XGG5V-21" value="&lt;&lt;+get&gt;&gt; FeedTimes(): List&lt;FeedTime&gt;" style="text;strokeColor=none;fillColor=none;align=left;verticalAlign=top;spacingLeft=4;spacingRight=4;overflow=hidden;rotatable=0;points=[[0,0.5],[1,0.5]];portConstraint=eastwest;" parent="LWB3FQmhy0f-1E5tpVHv-12" vertex="1">
                    <mxGeometry y="78" width="320" height="26" as="geometry"/>
                </mxCell>
                <mxCell id="5lg895d2sWfJ2j3XGG5V-27" value="&lt;&lt;+get&gt;&gt; FeedSchedule(): List&lt;int&gt;" style="text;strokeColor=none;fillColor=none;align=left;verticalAlign=top;spacingLeft=4;spacingRight=4;overflow=hidden;rotatable=0;points=[[0,0.5],[1,0.5]];portConstraint=eastwest;" parent="LWB3FQmhy0f-1E5tpVHv-12" vertex="1">
                    <mxGeometry y="104" width="320" height="26" as="geometry"/>
                </mxCell>
                <mxCell id="Kl3lhlv03-v8a5bvzwpP-34" value="&lt;&lt;+get, + set&gt;&gt; ID: int" style="text;strokeColor=none;fillColor=none;align=left;verticalAlign=top;spacingLeft=4;spacingRight=4;overflow=hidden;rotatable=0;points=[[0,0.5],[1,0.5]];portConstraint=eastwest;" parent="LWB3FQmhy0f-1E5tpVHv-12" vertex="1">
                    <mxGeometry y="130" width="320" height="26" as="geometry"/>
                </mxCell>
                <mxCell id="LWB3FQmhy0f-1E5tpVHv-14" value="" style="line;strokeWidth=1;fillColor=none;align=left;verticalAlign=middle;spacingTop=-1;spacingLeft=3;spacingRight=3;rotatable=0;labelPosition=right;points=[];portConstraint=eastwest;" parent="LWB3FQmhy0f-1E5tpVHv-12" vertex="1">
                    <mxGeometry y="156" width="320" height="8" as="geometry"/>
                </mxCell>
                <mxCell id="LWB3FQmhy0f-1E5tpVHv-25" value="+ &lt;&lt;abstract&gt;&gt; IsFriendlyWith(Animal): bool" style="text;strokeColor=none;fillColor=none;align=left;verticalAlign=top;spacingLeft=4;spacingRight=4;overflow=hidden;rotatable=0;points=[[0,0.5],[1,0.5]];portConstraint=eastwest;" parent="LWB3FQmhy0f-1E5tpVHv-12" vertex="1">
                    <mxGeometry y="164" width="320" height="26" as="geometry"/>
                </mxCell>
                <mxCell id="LWB3FQmhy0f-1E5tpVHv-15" value="+ Feed(Food, ZooKeeper): void" style="text;strokeColor=none;fillColor=none;align=left;verticalAlign=top;spacingLeft=4;spacingRight=4;overflow=hidden;rotatable=0;points=[[0,0.5],[1,0.5]];portConstraint=eastwest;" parent="LWB3FQmhy0f-1E5tpVHv-12" vertex="1">
                    <mxGeometry y="190" width="320" height="26" as="geometry"/>
                </mxCell>
                <mxCell id="Kl3lhlv03-v8a5bvzwpP-45" value="+ IsSick(): bool" style="text;strokeColor=none;fillColor=none;align=left;verticalAlign=top;spacingLeft=4;spacingRight=4;overflow=hidden;rotatable=0;points=[[0,0.5],[1,0.5]];portConstraint=eastwest;" parent="LWB3FQmhy0f-1E5tpVHv-12" vertex="1">
                    <mxGeometry y="216" width="320" height="26" as="geometry"/>
                </mxCell>
                <mxCell id="5lg895d2sWfJ2j3XGG5V-28" value="+ AddFeedSchedule(List&lt;int&gt; hours)" style="text;strokeColor=none;fillColor=none;align=left;verticalAlign=top;spacingLeft=4;spacingRight=4;overflow=hidden;rotatable=0;points=[[0,0.5],[1,0.5]];portConstraint=eastwest;" parent="LWB3FQmhy0f-1E5tpVHv-12" vertex="1">
                    <mxGeometry y="242" width="320" height="26" as="geometry"/>
                </mxCell>
                <mxCell id="Kl3lhlv03-v8a5bvzwpP-21" value="+ Heal(Medicine): void" style="text;strokeColor=none;fillColor=none;align=left;verticalAlign=top;spacingLeft=4;spacingRight=4;overflow=hidden;rotatable=0;points=[[0,0.5],[1,0.5]];portConstraint=eastwest;" parent="LWB3FQmhy0f-1E5tpVHv-12" vertex="1">
                    <mxGeometry y="268" width="320" height="26" as="geometry"/>
                </mxCell>
                <mxCell id="LWB3FQmhy0f-1E5tpVHv-16" value="&lt;&lt;abstract&gt;&gt; Bird" style="swimlane;fontStyle=1;align=center;verticalAlign=top;childLayout=stackLayout;horizontal=1;startSize=26;horizontalStack=0;resizeParent=1;resizeParentMax=0;resizeLast=0;collapsible=1;marginBottom=0;" parent="1" vertex="1">
                    <mxGeometry x="130" y="956" width="160" height="34" as="geometry"/>
                </mxCell>
                <mxCell id="LWB3FQmhy0f-1E5tpVHv-18" value="" style="line;strokeWidth=1;fillColor=none;align=left;verticalAlign=middle;spacingTop=-1;spacingLeft=3;spacingRight=3;rotatable=0;labelPosition=right;points=[];portConstraint=eastwest;" parent="LWB3FQmhy0f-1E5tpVHv-16" vertex="1">
                    <mxGeometry y="26" width="160" height="8" as="geometry"/>
                </mxCell>
                <mxCell id="LWB3FQmhy0f-1E5tpVHv-20" value="Extends" style="endArrow=block;endSize=16;endFill=0;html=1;entryX=0;entryY=0.5;entryDx=0;entryDy=0;exitX=0.5;exitY=0;exitDx=0;exitDy=0;" parent="1" source="LWB3FQmhy0f-1E5tpVHv-16" target="LWB3FQmhy0f-1E5tpVHv-25" edge="1">
                    <mxGeometry width="160" relative="1" as="geometry">
                        <mxPoint x="80" y="629" as="sourcePoint"/>
                        <mxPoint x="190" y="530" as="targetPoint"/>
                        <Array as="points">
                            <mxPoint x="210" y="820"/>
                        </Array>
                    </mxGeometry>
                </mxCell>
                <mxCell id="LWB3FQmhy0f-1E5tpVHv-21" value="&lt;&lt;abstract&gt;&gt; Reptile" style="swimlane;fontStyle=1;align=center;verticalAlign=top;childLayout=stackLayout;horizontal=1;startSize=26;horizontalStack=0;resizeParent=1;resizeParentMax=0;resizeLast=0;collapsible=1;marginBottom=0;" parent="1" vertex="1">
                    <mxGeometry x="460" y="956" width="210" height="34" as="geometry"/>
                </mxCell>
                <mxCell id="LWB3FQmhy0f-1E5tpVHv-23" value="" style="line;strokeWidth=1;fillColor=none;align=left;verticalAlign=middle;spacingTop=-1;spacingLeft=3;spacingRight=3;rotatable=0;labelPosition=right;points=[];portConstraint=eastwest;" parent="LWB3FQmhy0f-1E5tpVHv-21" vertex="1">
                    <mxGeometry y="26" width="210" height="8" as="geometry"/>
                </mxCell>
                <mxCell id="LWB3FQmhy0f-1E5tpVHv-26" value="Extends" style="endArrow=block;endSize=16;endFill=0;html=1;exitX=0.5;exitY=0;exitDx=0;exitDy=0;" parent="1" source="LWB3FQmhy0f-1E5tpVHv-21" target="LWB3FQmhy0f-1E5tpVHv-12" edge="1">
                    <mxGeometry width="160" relative="1" as="geometry">
                        <mxPoint x="90" y="639" as="sourcePoint"/>
                        <mxPoint x="200" y="439" as="targetPoint"/>
                        <Array as="points"/>
                    </mxGeometry>
                </mxCell>
                <mxCell id="LWB3FQmhy0f-1E5tpVHv-27" value="&lt;&lt;abstract&gt;&gt; Mammal" style="swimlane;fontStyle=1;align=center;verticalAlign=top;childLayout=stackLayout;horizontal=1;startSize=26;horizontalStack=0;resizeParent=1;resizeParentMax=0;resizeLast=0;collapsible=1;marginBottom=0;" parent="1" vertex="1">
                    <mxGeometry x="-160" y="956" width="210" height="34" as="geometry"/>
                </mxCell>
                <mxCell id="LWB3FQmhy0f-1E5tpVHv-29" value="" style="line;strokeWidth=1;fillColor=none;align=left;verticalAlign=middle;spacingTop=-1;spacingLeft=3;spacingRight=3;rotatable=0;labelPosition=right;points=[];portConstraint=eastwest;" parent="LWB3FQmhy0f-1E5tpVHv-27" vertex="1">
                    <mxGeometry y="26" width="210" height="8" as="geometry"/>
                </mxCell>
                <mxCell id="LWB3FQmhy0f-1E5tpVHv-34" value="&lt;&lt;abstract&gt;&gt; Food" style="swimlane;fontStyle=1;align=center;verticalAlign=top;childLayout=stackLayout;horizontal=1;startSize=26;horizontalStack=0;resizeParent=1;resizeParentMax=0;resizeLast=0;collapsible=1;marginBottom=0;" parent="1" vertex="1">
                    <mxGeometry x="1360" y="810" width="250" height="34" as="geometry"/>
                </mxCell>
                <mxCell id="LWB3FQmhy0f-1E5tpVHv-36" value="" style="line;strokeWidth=1;fillColor=none;align=left;verticalAlign=middle;spacingTop=-1;spacingLeft=3;spacingRight=3;rotatable=0;labelPosition=right;points=[];portConstraint=eastwest;" parent="LWB3FQmhy0f-1E5tpVHv-34" vertex="1">
                    <mxGeometry y="26" width="250" height="8" as="geometry"/>
                </mxCell>
                <mxCell id="jl_lPzITlCrjGEIheyMD-1" value="Enclosure" style="swimlane;fontStyle=1;align=center;verticalAlign=top;childLayout=stackLayout;horizontal=1;startSize=26;horizontalStack=0;resizeParent=1;resizeParentMax=0;resizeLast=0;collapsible=1;marginBottom=0;" parent="1" vertex="1">
                    <mxGeometry x="900" y="550" width="350" height="164" as="geometry"/>
                </mxCell>
                <mxCell id="Kl3lhlv03-v8a5bvzwpP-44" value="&lt;&lt;-set, +get&gt;&gt; Name: string" style="text;strokeColor=none;fillColor=none;align=left;verticalAlign=top;spacingLeft=4;spacingRight=4;overflow=hidden;rotatable=0;points=[[0,0.5],[1,0.5]];portConstraint=eastwest;" parent="jl_lPzITlCrjGEIheyMD-1" vertex="1">
                    <mxGeometry y="26" width="350" height="26" as="geometry"/>
                </mxCell>
                <mxCell id="jl_lPzITlCrjGEIheyMD-2" value="&lt;&lt;-set, +get&gt;&gt; Animals: List&lt;Animals&gt;" style="text;strokeColor=none;fillColor=none;align=left;verticalAlign=top;spacingLeft=4;spacingRight=4;overflow=hidden;rotatable=0;points=[[0,0.5],[1,0.5]];portConstraint=eastwest;" parent="jl_lPzITlCrjGEIheyMD-1" vertex="1">
                    <mxGeometry y="52" width="350" height="26" as="geometry"/>
                </mxCell>
                <mxCell id="jl_lPzITlCrjGEIheyMD-20" value="&lt;&lt;-set, +get&gt;&gt; ParentZoo: Zoo" style="text;strokeColor=none;fillColor=none;align=left;verticalAlign=top;spacingLeft=4;spacingRight=4;overflow=hidden;rotatable=0;points=[[0,0.5],[1,0.5]];portConstraint=eastwest;" parent="jl_lPzITlCrjGEIheyMD-1" vertex="1">
                    <mxGeometry y="78" width="350" height="26" as="geometry"/>
                </mxCell>
                <mxCell id="KuXRLgFttOdv6xOlEkm7-29" value="&lt;&lt;-set, +get&gt;&gt; SqureFeet: int" style="text;strokeColor=none;fillColor=none;align=left;verticalAlign=top;spacingLeft=4;spacingRight=4;overflow=hidden;rotatable=0;points=[[0,0.5],[1,0.5]];portConstraint=eastwest;" parent="jl_lPzITlCrjGEIheyMD-1" vertex="1">
                    <mxGeometry y="104" width="350" height="26" as="geometry"/>
                </mxCell>
                <mxCell id="jl_lPzITlCrjGEIheyMD-3" value="" style="line;strokeWidth=1;fillColor=none;align=left;verticalAlign=middle;spacingTop=-1;spacingLeft=3;spacingRight=3;rotatable=0;labelPosition=right;points=[];portConstraint=eastwest;" parent="jl_lPzITlCrjGEIheyMD-1" vertex="1">
                    <mxGeometry y="130" width="350" height="8" as="geometry"/>
                </mxCell>
                <mxCell id="jl_lPzITlCrjGEIheyMD-4" value="+ AddAnimals(Animal animal) : void" style="text;strokeColor=none;fillColor=none;align=left;verticalAlign=top;spacingLeft=4;spacingRight=4;overflow=hidden;rotatable=0;points=[[0,0.5],[1,0.5]];portConstraint=eastwest;" parent="jl_lPzITlCrjGEIheyMD-1" vertex="1">
                    <mxGeometry y="138" width="350" height="26" as="geometry"/>
                </mxCell>
                <mxCell id="jl_lPzITlCrjGEIheyMD-6" value="NotFriendlyAnimalException" style="swimlane;fontStyle=1;align=center;verticalAlign=top;childLayout=stackLayout;horizontal=1;startSize=26;horizontalStack=0;resizeParent=1;resizeParentMax=0;resizeLast=0;collapsible=1;marginBottom=0;" parent="1" vertex="1">
                    <mxGeometry x="1190" y="110" width="220" height="86" as="geometry"/>
                </mxCell>
                <mxCell id="jl_lPzITlCrjGEIheyMD-7" value=" " style="text;strokeColor=none;fillColor=none;align=left;verticalAlign=top;spacingLeft=4;spacingRight=4;overflow=hidden;rotatable=0;points=[[0,0.5],[1,0.5]];portConstraint=eastwest;" parent="jl_lPzITlCrjGEIheyMD-6" vertex="1">
                    <mxGeometry y="26" width="220" height="26" as="geometry"/>
                </mxCell>
                <mxCell id="jl_lPzITlCrjGEIheyMD-8" value="" style="line;strokeWidth=1;fillColor=none;align=left;verticalAlign=middle;spacingTop=-1;spacingLeft=3;spacingRight=3;rotatable=0;labelPosition=right;points=[];portConstraint=eastwest;" parent="jl_lPzITlCrjGEIheyMD-6" vertex="1">
                    <mxGeometry y="52" width="220" height="8" as="geometry"/>
                </mxCell>
                <mxCell id="jl_lPzITlCrjGEIheyMD-9" value=" " style="text;strokeColor=none;fillColor=none;align=left;verticalAlign=top;spacingLeft=4;spacingRight=4;overflow=hidden;rotatable=0;points=[[0,0.5],[1,0.5]];portConstraint=eastwest;" parent="jl_lPzITlCrjGEIheyMD-6" vertex="1">
                    <mxGeometry y="60" width="220" height="26" as="geometry"/>
                </mxCell>
                <mxCell id="jl_lPzITlCrjGEIheyMD-21" value="" style="endArrow=open;endFill=1;endSize=12;html=1;entryX=0.5;entryY=0;entryDx=0;entryDy=0;" parent="1" source="LWB3FQmhy0f-1E5tpVHv-2" target="jl_lPzITlCrjGEIheyMD-1" edge="1">
                    <mxGeometry width="160" relative="1" as="geometry">
                        <mxPoint x="930" y="259" as="sourcePoint"/>
                        <mxPoint x="1090" y="250" as="targetPoint"/>
                        <Array as="points">
                            <mxPoint x="1075" y="299"/>
                        </Array>
                    </mxGeometry>
                </mxCell>
                <mxCell id="jl_lPzITlCrjGEIheyMD-29" value="NoAvailableEclosureException" style="swimlane;fontStyle=1;align=center;verticalAlign=top;childLayout=stackLayout;horizontal=1;startSize=26;horizontalStack=0;resizeParent=1;resizeParentMax=0;resizeLast=0;collapsible=1;marginBottom=0;" parent="1" vertex="1">
                    <mxGeometry x="1430" y="110" width="220" height="86" as="geometry"/>
                </mxCell>
                <mxCell id="jl_lPzITlCrjGEIheyMD-30" value=" " style="text;strokeColor=none;fillColor=none;align=left;verticalAlign=top;spacingLeft=4;spacingRight=4;overflow=hidden;rotatable=0;points=[[0,0.5],[1,0.5]];portConstraint=eastwest;" parent="jl_lPzITlCrjGEIheyMD-29" vertex="1">
                    <mxGeometry y="26" width="220" height="26" as="geometry"/>
                </mxCell>
                <mxCell id="jl_lPzITlCrjGEIheyMD-31" value="" style="line;strokeWidth=1;fillColor=none;align=left;verticalAlign=middle;spacingTop=-1;spacingLeft=3;spacingRight=3;rotatable=0;labelPosition=right;points=[];portConstraint=eastwest;" parent="jl_lPzITlCrjGEIheyMD-29" vertex="1">
                    <mxGeometry y="52" width="220" height="8" as="geometry"/>
                </mxCell>
                <mxCell id="jl_lPzITlCrjGEIheyMD-32" value=" " style="text;strokeColor=none;fillColor=none;align=left;verticalAlign=top;spacingLeft=4;spacingRight=4;overflow=hidden;rotatable=0;points=[[0,0.5],[1,0.5]];portConstraint=eastwest;" parent="jl_lPzITlCrjGEIheyMD-29" vertex="1">
                    <mxGeometry y="60" width="220" height="26" as="geometry"/>
                </mxCell>
                <mxCell id="jl_lPzITlCrjGEIheyMD-33" value="NoAvailableSpaceException" style="swimlane;fontStyle=1;align=center;verticalAlign=top;childLayout=stackLayout;horizontal=1;startSize=26;horizontalStack=0;resizeParent=1;resizeParentMax=0;resizeLast=0;collapsible=1;marginBottom=0;" parent="1" vertex="1">
                    <mxGeometry x="1450" y="-10" width="220" height="86" as="geometry"/>
                </mxCell>
                <mxCell id="jl_lPzITlCrjGEIheyMD-34" value=" " style="text;strokeColor=none;fillColor=none;align=left;verticalAlign=top;spacingLeft=4;spacingRight=4;overflow=hidden;rotatable=0;points=[[0,0.5],[1,0.5]];portConstraint=eastwest;" parent="jl_lPzITlCrjGEIheyMD-33" vertex="1">
                    <mxGeometry y="26" width="220" height="26" as="geometry"/>
                </mxCell>
                <mxCell id="jl_lPzITlCrjGEIheyMD-35" value="" style="line;strokeWidth=1;fillColor=none;align=left;verticalAlign=middle;spacingTop=-1;spacingLeft=3;spacingRight=3;rotatable=0;labelPosition=right;points=[];portConstraint=eastwest;" parent="jl_lPzITlCrjGEIheyMD-33" vertex="1">
                    <mxGeometry y="52" width="220" height="8" as="geometry"/>
                </mxCell>
                <mxCell id="jl_lPzITlCrjGEIheyMD-36" value=" " style="text;strokeColor=none;fillColor=none;align=left;verticalAlign=top;spacingLeft=4;spacingRight=4;overflow=hidden;rotatable=0;points=[[0,0.5],[1,0.5]];portConstraint=eastwest;" parent="jl_lPzITlCrjGEIheyMD-33" vertex="1">
                    <mxGeometry y="60" width="220" height="26" as="geometry"/>
                </mxCell>
                <mxCell id="5lg895d2sWfJ2j3XGG5V-2" value="ZooKeeper" style="swimlane;fontStyle=1;align=center;verticalAlign=top;childLayout=stackLayout;horizontal=1;startSize=26;horizontalStack=0;resizeParent=1;resizeParentMax=0;resizeLast=0;collapsible=1;marginBottom=0;" parent="1" vertex="1">
                    <mxGeometry x="1490" y="510" width="250" height="190" as="geometry"/>
                </mxCell>
                <mxCell id="5lg895d2sWfJ2j3XGG5V-3" value="&lt;&lt;-set, +get&gt;&gt; FirstName: string" style="text;strokeColor=none;fillColor=none;align=left;verticalAlign=top;spacingLeft=4;spacingRight=4;overflow=hidden;rotatable=0;points=[[0,0.5],[1,0.5]];portConstraint=eastwest;" parent="5lg895d2sWfJ2j3XGG5V-2" vertex="1">
                    <mxGeometry y="26" width="250" height="26" as="geometry"/>
                </mxCell>
                <mxCell id="5lg895d2sWfJ2j3XGG5V-8" value="&lt;&lt;-set, +get&gt;&gt; LastName: string" style="text;strokeColor=none;fillColor=none;align=left;verticalAlign=top;spacingLeft=4;spacingRight=4;overflow=hidden;rotatable=0;points=[[0,0.5],[1,0.5]];portConstraint=eastwest;" parent="5lg895d2sWfJ2j3XGG5V-2" vertex="1">
                    <mxGeometry y="52" width="250" height="26" as="geometry"/>
                </mxCell>
                <mxCell id="5lg895d2sWfJ2j3XGG5V-6" value="&lt;&lt;-set, +get&gt;&gt; AnimalExperiences: string" style="text;strokeColor=none;fillColor=none;align=left;verticalAlign=top;spacingLeft=4;spacingRight=4;overflow=hidden;rotatable=0;points=[[0,0.5],[1,0.5]];portConstraint=eastwest;" parent="5lg895d2sWfJ2j3XGG5V-2" vertex="1">
                    <mxGeometry y="78" width="250" height="26" as="geometry"/>
                </mxCell>
                <mxCell id="5lg895d2sWfJ2j3XGG5V-4" value="" style="line;strokeWidth=1;fillColor=none;align=left;verticalAlign=middle;spacingTop=-1;spacingLeft=3;spacingRight=3;rotatable=0;labelPosition=right;points=[];portConstraint=eastwest;" parent="5lg895d2sWfJ2j3XGG5V-2" vertex="1">
                    <mxGeometry y="104" width="250" height="8" as="geometry"/>
                </mxCell>
                <mxCell id="5lg895d2sWfJ2j3XGG5V-5" value="+ AddAnimalExperience(Animal): void" style="text;strokeColor=none;fillColor=none;align=left;verticalAlign=top;spacingLeft=4;spacingRight=4;overflow=hidden;rotatable=0;points=[[0,0.5],[1,0.5]];portConstraint=eastwest;" parent="5lg895d2sWfJ2j3XGG5V-2" vertex="1">
                    <mxGeometry y="112" width="250" height="26" as="geometry"/>
                </mxCell>
                <mxCell id="5lg895d2sWfJ2j3XGG5V-10" value="+ HasAnimalExerience(Animal): bool" style="text;strokeColor=none;fillColor=none;align=left;verticalAlign=top;spacingLeft=4;spacingRight=4;overflow=hidden;rotatable=0;points=[[0,0.5],[1,0.5]];portConstraint=eastwest;" parent="5lg895d2sWfJ2j3XGG5V-2" vertex="1">
                    <mxGeometry y="138" width="250" height="26" as="geometry"/>
                </mxCell>
                <mxCell id="KuXRLgFttOdv6xOlEkm7-20" value="+ FeedAnimal(Animal): bool" style="text;strokeColor=none;fillColor=none;align=left;verticalAlign=top;spacingLeft=4;spacingRight=4;overflow=hidden;rotatable=0;points=[[0,0.5],[1,0.5]];portConstraint=eastwest;" parent="5lg895d2sWfJ2j3XGG5V-2" vertex="1">
                    <mxGeometry y="164" width="250" height="26" as="geometry"/>
                </mxCell>
                <mxCell id="5lg895d2sWfJ2j3XGG5V-11" value="" style="endArrow=open;endFill=1;endSize=12;html=1;exitX=1;exitY=0.5;exitDx=0;exitDy=0;entryX=0;entryY=0.25;entryDx=0;entryDy=0;" parent="1" source="5lg895d2sWfJ2j3XGG5V-12" target="KuXRLgFttOdv6xOlEkm7-2" edge="1">
                    <mxGeometry width="160" relative="1" as="geometry">
                        <mxPoint x="940" y="269" as="sourcePoint"/>
                        <mxPoint x="1075" y="480" as="targetPoint"/>
                        <Array as="points">
                            <mxPoint x="1180" y="351"/>
                        </Array>
                    </mxGeometry>
                </mxCell>
                <mxCell id="5lg895d2sWfJ2j3XGG5V-14" value="NoNeededExperienceException" style="swimlane;fontStyle=1;align=center;verticalAlign=top;childLayout=stackLayout;horizontal=1;startSize=26;horizontalStack=0;resizeParent=1;resizeParentMax=0;resizeLast=0;collapsible=1;marginBottom=0;" parent="1" vertex="1">
                    <mxGeometry x="1190" y="-10" width="220" height="86" as="geometry"/>
                </mxCell>
                <mxCell id="5lg895d2sWfJ2j3XGG5V-15" value=" " style="text;strokeColor=none;fillColor=none;align=left;verticalAlign=top;spacingLeft=4;spacingRight=4;overflow=hidden;rotatable=0;points=[[0,0.5],[1,0.5]];portConstraint=eastwest;" parent="5lg895d2sWfJ2j3XGG5V-14" vertex="1">
                    <mxGeometry y="26" width="220" height="26" as="geometry"/>
                </mxCell>
                <mxCell id="5lg895d2sWfJ2j3XGG5V-16" value="" style="line;strokeWidth=1;fillColor=none;align=left;verticalAlign=middle;spacingTop=-1;spacingLeft=3;spacingRight=3;rotatable=0;labelPosition=right;points=[];portConstraint=eastwest;" parent="5lg895d2sWfJ2j3XGG5V-14" vertex="1">
                    <mxGeometry y="52" width="220" height="8" as="geometry"/>
                </mxCell>
                <mxCell id="5lg895d2sWfJ2j3XGG5V-17" value=" " style="text;strokeColor=none;fillColor=none;align=left;verticalAlign=top;spacingLeft=4;spacingRight=4;overflow=hidden;rotatable=0;points=[[0,0.5],[1,0.5]];portConstraint=eastwest;" parent="5lg895d2sWfJ2j3XGG5V-14" vertex="1">
                    <mxGeometry y="60" width="220" height="26" as="geometry"/>
                </mxCell>
                <mxCell id="5lg895d2sWfJ2j3XGG5V-22" value="FeedTime" style="swimlane;fontStyle=1;align=center;verticalAlign=top;childLayout=stackLayout;horizontal=1;startSize=26;horizontalStack=0;resizeParent=1;resizeParentMax=0;resizeLast=0;collapsible=1;marginBottom=0;" parent="1" vertex="1">
                    <mxGeometry x="760" y="914" width="250" height="86" as="geometry"/>
                </mxCell>
                <mxCell id="5lg895d2sWfJ2j3XGG5V-23" value="+ FeedTime: DateTime" style="text;strokeColor=none;fillColor=none;align=left;verticalAlign=top;spacingLeft=4;spacingRight=4;overflow=hidden;rotatable=0;points=[[0,0.5],[1,0.5]];portConstraint=eastwest;" parent="5lg895d2sWfJ2j3XGG5V-22" vertex="1">
                    <mxGeometry y="26" width="250" height="26" as="geometry"/>
                </mxCell>
                <mxCell id="5lg895d2sWfJ2j3XGG5V-26" value="+ FeedByZooKeeper: ZooKeeper" style="text;strokeColor=none;fillColor=none;align=left;verticalAlign=top;spacingLeft=4;spacingRight=4;overflow=hidden;rotatable=0;points=[[0,0.5],[1,0.5]];portConstraint=eastwest;" parent="5lg895d2sWfJ2j3XGG5V-22" vertex="1">
                    <mxGeometry y="52" width="250" height="26" as="geometry"/>
                </mxCell>
                <mxCell id="5lg895d2sWfJ2j3XGG5V-24" value="" style="line;strokeWidth=1;fillColor=none;align=left;verticalAlign=middle;spacingTop=-1;spacingLeft=3;spacingRight=3;rotatable=0;labelPosition=right;points=[];portConstraint=eastwest;" parent="5lg895d2sWfJ2j3XGG5V-22" vertex="1">
                    <mxGeometry y="78" width="250" height="8" as="geometry"/>
                </mxCell>
                <mxCell id="5lg895d2sWfJ2j3XGG5V-29" value="" style="endArrow=open;endFill=1;endSize=12;html=1;exitX=1;exitY=0.046;exitDx=0;exitDy=0;entryX=0;entryY=0.5;entryDx=0;entryDy=0;exitPerimeter=0;" parent="1" source="LWB3FQmhy0f-1E5tpVHv-12" target="jl_lPzITlCrjGEIheyMD-2" edge="1">
                    <mxGeometry width="160" relative="1" as="geometry">
                        <mxPoint x="930" y="309" as="sourcePoint"/>
                        <mxPoint x="690" y="540" as="targetPoint"/>
                    </mxGeometry>
                </mxCell>
                <mxCell id="5lg895d2sWfJ2j3XGG5V-30" value="" style="endArrow=classic;html=1;entryX=1;entryY=0.5;entryDx=0;entryDy=0;exitX=0.5;exitY=0;exitDx=0;exitDy=0;" parent="1" source="LWB3FQmhy0f-1E5tpVHv-1" target="LWB3FQmhy0f-1E5tpVHv-6" edge="1">
                    <mxGeometry width="50" height="50" relative="1" as="geometry">
                        <mxPoint x="470" y="460" as="sourcePoint"/>
                        <mxPoint x="520" y="410" as="targetPoint"/>
                        <Array as="points">
                            <mxPoint x="745" y="183"/>
                        </Array>
                    </mxGeometry>
                </mxCell>
                <mxCell id="5lg895d2sWfJ2j3XGG5V-34" value="Extends" style="endArrow=block;endSize=16;endFill=0;html=1;entryX=0;entryY=0.5;entryDx=0;entryDy=0;exitX=0.5;exitY=0;exitDx=0;exitDy=0;" parent="1" source="LWB3FQmhy0f-1E5tpVHv-27" target="LWB3FQmhy0f-1E5tpVHv-13" edge="1">
                    <mxGeometry width="160" relative="1" as="geometry">
                        <mxPoint x="-55" y="956" as="sourcePoint"/>
                        <mxPoint x="400" y="643" as="targetPoint"/>
                        <Array as="points">
                            <mxPoint x="-55" y="619"/>
                        </Array>
                    </mxGeometry>
                </mxCell>
                <mxCell id="5lg895d2sWfJ2j3XGG5V-35" value="" style="endArrow=open;endFill=1;endSize=12;html=1;exitX=1;exitY=0.808;exitDx=0;exitDy=0;entryX=0.5;entryY=0;entryDx=0;entryDy=0;exitPerimeter=0;" parent="1" source="5lg895d2sWfJ2j3XGG5V-21" target="5lg895d2sWfJ2j3XGG5V-22" edge="1">
                    <mxGeometry width="160" relative="1" as="geometry">
                        <mxPoint x="730" y="687.9960000000001" as="sourcePoint"/>
                        <mxPoint x="900" y="640" as="targetPoint"/>
                    </mxGeometry>
                </mxCell>
                <mxCell id="5lg895d2sWfJ2j3XGG5V-42" value="Grass" style="swimlane;fontStyle=1;align=center;verticalAlign=top;childLayout=stackLayout;horizontal=1;startSize=26;horizontalStack=0;resizeParent=1;resizeParentMax=0;resizeLast=0;collapsible=1;marginBottom=0;" parent="1" vertex="1">
                    <mxGeometry x="1190" y="922" width="250" height="34" as="geometry"/>
                </mxCell>
                <mxCell id="5lg895d2sWfJ2j3XGG5V-43" value="" style="line;strokeWidth=1;fillColor=none;align=left;verticalAlign=middle;spacingTop=-1;spacingLeft=3;spacingRight=3;rotatable=0;labelPosition=right;points=[];portConstraint=eastwest;" parent="5lg895d2sWfJ2j3XGG5V-42" vertex="1">
                    <mxGeometry y="26" width="250" height="8" as="geometry"/>
                </mxCell>
                <mxCell id="5lg895d2sWfJ2j3XGG5V-44" value="Meet" style="swimlane;fontStyle=1;align=center;verticalAlign=top;childLayout=stackLayout;horizontal=1;startSize=26;horizontalStack=0;resizeParent=1;resizeParentMax=0;resizeLast=0;collapsible=1;marginBottom=0;" parent="1" vertex="1">
                    <mxGeometry x="1590" y="910" width="250" height="34" as="geometry"/>
                </mxCell>
                <mxCell id="5lg895d2sWfJ2j3XGG5V-45" value="" style="line;strokeWidth=1;fillColor=none;align=left;verticalAlign=middle;spacingTop=-1;spacingLeft=3;spacingRight=3;rotatable=0;labelPosition=right;points=[];portConstraint=eastwest;" parent="5lg895d2sWfJ2j3XGG5V-44" vertex="1">
                    <mxGeometry y="26" width="250" height="8" as="geometry"/>
                </mxCell>
                <mxCell id="5lg895d2sWfJ2j3XGG5V-46" value="" style="endArrow=open;endFill=1;endSize=12;html=1;entryX=0.5;entryY=0;entryDx=0;entryDy=0;exitX=1;exitY=0.5;exitDx=0;exitDy=0;" parent="1" source="LWB3FQmhy0f-1E5tpVHv-40" target="LWB3FQmhy0f-1E5tpVHv-34" edge="1">
                    <mxGeometry width="160" relative="1" as="geometry">
                        <mxPoint x="730" y="713.008" as="sourcePoint"/>
                        <mxPoint x="1015" y="910" as="targetPoint"/>
                        <Array as="points">
                            <mxPoint x="910" y="770"/>
                        </Array>
                    </mxGeometry>
                </mxCell>
                <mxCell id="5lg895d2sWfJ2j3XGG5V-50" value="Extends" style="endArrow=block;endSize=16;endFill=0;html=1;exitX=0.5;exitY=0;exitDx=0;exitDy=0;entryX=0.704;entryY=0.75;entryDx=0;entryDy=0;entryPerimeter=0;" parent="1" source="5lg895d2sWfJ2j3XGG5V-44" target="LWB3FQmhy0f-1E5tpVHv-36" edge="1">
                    <mxGeometry width="160" relative="1" as="geometry">
                        <mxPoint x="1492.79" y="966" as="sourcePoint"/>
                        <mxPoint x="1490.0031147540985" y="830" as="targetPoint"/>
                        <Array as="points"/>
                    </mxGeometry>
                </mxCell>
                <mxCell id="5lg895d2sWfJ2j3XGG5V-51" value="Extends" style="endArrow=block;endSize=16;endFill=0;html=1;exitX=0.5;exitY=0;exitDx=0;exitDy=0;entryX=0.304;entryY=1;entryDx=0;entryDy=0;entryPerimeter=0;" parent="1" source="5lg895d2sWfJ2j3XGG5V-42" target="LWB3FQmhy0f-1E5tpVHv-36" edge="1">
                    <mxGeometry width="160" relative="1" as="geometry">
                        <mxPoint x="1645" y="932" as="sourcePoint"/>
                        <mxPoint x="1495" y="854" as="targetPoint"/>
                        <Array as="points"/>
                    </mxGeometry>
                </mxCell>
                <mxCell id="5lg895d2sWfJ2j3XGG5V-52" value="Vegetable" style="swimlane;fontStyle=1;align=center;verticalAlign=top;childLayout=stackLayout;horizontal=1;startSize=26;horizontalStack=0;resizeParent=1;resizeParentMax=0;resizeLast=0;collapsible=1;marginBottom=0;" parent="1" vertex="1">
                    <mxGeometry x="1360" y="1000" width="250" height="34" as="geometry"/>
                </mxCell>
                <mxCell id="5lg895d2sWfJ2j3XGG5V-53" value="" style="line;strokeWidth=1;fillColor=none;align=left;verticalAlign=middle;spacingTop=-1;spacingLeft=3;spacingRight=3;rotatable=0;labelPosition=right;points=[];portConstraint=eastwest;" parent="5lg895d2sWfJ2j3XGG5V-52" vertex="1">
                    <mxGeometry y="26" width="250" height="8" as="geometry"/>
                </mxCell>
                <mxCell id="5lg895d2sWfJ2j3XGG5V-54" value="Extends" style="endArrow=block;endSize=16;endFill=0;html=1;exitX=0.5;exitY=0;exitDx=0;exitDy=0;" parent="1" source="5lg895d2sWfJ2j3XGG5V-52" target="LWB3FQmhy0f-1E5tpVHv-34" edge="1">
                    <mxGeometry width="160" relative="1" as="geometry">
                        <mxPoint x="1355" y="930" as="sourcePoint"/>
                        <mxPoint x="1446" y="854" as="targetPoint"/>
                        <Array as="points"/>
                    </mxGeometry>
                </mxCell>
                <mxCell id="5lg895d2sWfJ2j3XGG5V-55" value="Elephant" style="swimlane;fontStyle=1;align=center;verticalAlign=top;childLayout=stackLayout;horizontal=1;startSize=26;horizontalStack=0;resizeParent=1;resizeParentMax=0;resizeLast=0;collapsible=1;marginBottom=0;" parent="1" vertex="1">
                    <mxGeometry x="-300" y="1066" width="210" height="34" as="geometry"/>
                </mxCell>
                <mxCell id="5lg895d2sWfJ2j3XGG5V-56" value="" style="line;strokeWidth=1;fillColor=none;align=left;verticalAlign=middle;spacingTop=-1;spacingLeft=3;spacingRight=3;rotatable=0;labelPosition=right;points=[];portConstraint=eastwest;" parent="5lg895d2sWfJ2j3XGG5V-55" vertex="1">
                    <mxGeometry y="26" width="210" height="8" as="geometry"/>
                </mxCell>
                <mxCell id="5lg895d2sWfJ2j3XGG5V-57" value="Bison" style="swimlane;fontStyle=1;align=center;verticalAlign=top;childLayout=stackLayout;horizontal=1;startSize=26;horizontalStack=0;resizeParent=1;resizeParentMax=0;resizeLast=0;collapsible=1;marginBottom=0;" parent="1" vertex="1">
                    <mxGeometry x="-60" y="1066" width="210" height="34" as="geometry"/>
                </mxCell>
                <mxCell id="5lg895d2sWfJ2j3XGG5V-58" value="" style="line;strokeWidth=1;fillColor=none;align=left;verticalAlign=middle;spacingTop=-1;spacingLeft=3;spacingRight=3;rotatable=0;labelPosition=right;points=[];portConstraint=eastwest;" parent="5lg895d2sWfJ2j3XGG5V-57" vertex="1">
                    <mxGeometry y="26" width="210" height="8" as="geometry"/>
                </mxCell>
                <mxCell id="5lg895d2sWfJ2j3XGG5V-62" value="Extends" style="endArrow=block;endSize=16;endFill=0;html=1;entryX=0.3;entryY=0.625;entryDx=0;entryDy=0;exitX=0.5;exitY=0;exitDx=0;exitDy=0;entryPerimeter=0;" parent="1" source="5lg895d2sWfJ2j3XGG5V-55" target="LWB3FQmhy0f-1E5tpVHv-29" edge="1">
                    <mxGeometry width="160" relative="1" as="geometry">
                        <mxPoint x="-280" y="1261" as="sourcePoint"/>
                        <mxPoint x="-90" y="1060" as="targetPoint"/>
                        <Array as="points">
                            <mxPoint x="-100" y="1040"/>
                        </Array>
                    </mxGeometry>
                </mxCell>
                <mxCell id="5lg895d2sWfJ2j3XGG5V-63" value="Extends" style="endArrow=block;endSize=16;endFill=0;html=1;exitX=0.5;exitY=0;exitDx=0;exitDy=0;" parent="1" source="5lg895d2sWfJ2j3XGG5V-57" edge="1">
                    <mxGeometry width="160" relative="1" as="geometry">
                        <mxPoint x="-175" y="1070" as="sourcePoint"/>
                        <mxPoint x="-10" y="990" as="targetPoint"/>
                        <Array as="points">
                            <mxPoint x="-10" y="1040"/>
                        </Array>
                    </mxGeometry>
                </mxCell>
                <mxCell id="5lg895d2sWfJ2j3XGG5V-64" value="Parrot" style="swimlane;fontStyle=1;align=center;verticalAlign=top;childLayout=stackLayout;horizontal=1;startSize=26;horizontalStack=0;resizeParent=1;resizeParentMax=0;resizeLast=0;collapsible=1;marginBottom=0;" parent="1" vertex="1">
                    <mxGeometry x="230" y="1170" width="210" height="34" as="geometry"/>
                </mxCell>
                <mxCell id="5lg895d2sWfJ2j3XGG5V-65" value="" style="line;strokeWidth=1;fillColor=none;align=left;verticalAlign=middle;spacingTop=-1;spacingLeft=3;spacingRight=3;rotatable=0;labelPosition=right;points=[];portConstraint=eastwest;" parent="5lg895d2sWfJ2j3XGG5V-64" vertex="1">
                    <mxGeometry y="26" width="210" height="8" as="geometry"/>
                </mxCell>
                <mxCell id="5lg895d2sWfJ2j3XGG5V-66" value="Extends" style="endArrow=block;endSize=16;endFill=0;html=1;exitX=0.5;exitY=0;exitDx=0;exitDy=0;entryX=0.738;entryY=0.647;entryDx=0;entryDy=0;entryPerimeter=0;" parent="1" source="5lg895d2sWfJ2j3XGG5V-64" target="LWB3FQmhy0f-1E5tpVHv-16" edge="1">
                    <mxGeometry width="160" relative="1" as="geometry">
                        <mxPoint x="85" y="1180" as="sourcePoint"/>
                        <mxPoint x="250" y="1100" as="targetPoint"/>
                        <Array as="points">
                            <mxPoint x="248" y="1100"/>
                        </Array>
                    </mxGeometry>
                </mxCell>
                <mxCell id="5lg895d2sWfJ2j3XGG5V-67" value="Penguin" style="swimlane;fontStyle=1;align=center;verticalAlign=top;childLayout=stackLayout;horizontal=1;startSize=26;horizontalStack=0;resizeParent=1;resizeParentMax=0;resizeLast=0;collapsible=1;marginBottom=0;" parent="1" vertex="1">
                    <mxGeometry x="-30" y="1170" width="210" height="34" as="geometry"/>
                </mxCell>
                <mxCell id="5lg895d2sWfJ2j3XGG5V-68" value="" style="line;strokeWidth=1;fillColor=none;align=left;verticalAlign=middle;spacingTop=-1;spacingLeft=3;spacingRight=3;rotatable=0;labelPosition=right;points=[];portConstraint=eastwest;" parent="5lg895d2sWfJ2j3XGG5V-67" vertex="1">
                    <mxGeometry y="26" width="210" height="8" as="geometry"/>
                </mxCell>
                <mxCell id="5lg895d2sWfJ2j3XGG5V-69" value="Extends" style="endArrow=block;endSize=16;endFill=0;html=1;exitX=0.75;exitY=0;exitDx=0;exitDy=0;entryX=0.381;entryY=0.618;entryDx=0;entryDy=0;entryPerimeter=0;" parent="1" source="5lg895d2sWfJ2j3XGG5V-67" target="LWB3FQmhy0f-1E5tpVHv-16" edge="1">
                    <mxGeometry width="160" relative="1" as="geometry">
                        <mxPoint x="345" y="1180" as="sourcePoint"/>
                        <mxPoint x="258.0799999999999" y="987.998" as="targetPoint"/>
                        <Array as="points">
                            <mxPoint x="191" y="1110"/>
                        </Array>
                    </mxGeometry>
                </mxCell>
                <mxCell id="5lg895d2sWfJ2j3XGG5V-70" value="Snake" style="swimlane;fontStyle=1;align=center;verticalAlign=top;childLayout=stackLayout;horizontal=1;startSize=26;horizontalStack=0;resizeParent=1;resizeParentMax=0;resizeLast=0;collapsible=1;marginBottom=0;" parent="1" vertex="1">
                    <mxGeometry x="610" y="1060" width="210" height="34" as="geometry"/>
                </mxCell>
                <mxCell id="5lg895d2sWfJ2j3XGG5V-71" value="" style="line;strokeWidth=1;fillColor=none;align=left;verticalAlign=middle;spacingTop=-1;spacingLeft=3;spacingRight=3;rotatable=0;labelPosition=right;points=[];portConstraint=eastwest;" parent="5lg895d2sWfJ2j3XGG5V-70" vertex="1">
                    <mxGeometry y="26" width="210" height="8" as="geometry"/>
                </mxCell>
                <mxCell id="5lg895d2sWfJ2j3XGG5V-72" value="Turtle" style="swimlane;fontStyle=1;align=center;verticalAlign=top;childLayout=stackLayout;horizontal=1;startSize=26;horizontalStack=0;resizeParent=1;resizeParentMax=0;resizeLast=0;collapsible=1;marginBottom=0;" parent="1" vertex="1">
                    <mxGeometry x="325" y="1060" width="210" height="34" as="geometry"/>
                </mxCell>
                <mxCell id="5lg895d2sWfJ2j3XGG5V-73" value="" style="line;strokeWidth=1;fillColor=none;align=left;verticalAlign=middle;spacingTop=-1;spacingLeft=3;spacingRight=3;rotatable=0;labelPosition=right;points=[];portConstraint=eastwest;" parent="5lg895d2sWfJ2j3XGG5V-72" vertex="1">
                    <mxGeometry y="26" width="210" height="8" as="geometry"/>
                </mxCell>
                <mxCell id="5lg895d2sWfJ2j3XGG5V-74" value="Extends" style="endArrow=block;endSize=16;endFill=0;html=1;exitX=0.5;exitY=0;exitDx=0;exitDy=0;" parent="1" source="5lg895d2sWfJ2j3XGG5V-70" target="LWB3FQmhy0f-1E5tpVHv-21" edge="1">
                    <mxGeometry width="160" relative="1" as="geometry">
                        <mxPoint x="345" y="1180" as="sourcePoint"/>
                        <mxPoint x="258.0799999999999" y="987.998" as="targetPoint"/>
                    </mxGeometry>
                </mxCell>
                <mxCell id="5lg895d2sWfJ2j3XGG5V-75" value="Extends" style="endArrow=block;endSize=16;endFill=0;html=1;exitX=0.5;exitY=0;exitDx=0;exitDy=0;" parent="1" source="5lg895d2sWfJ2j3XGG5V-72" target="LWB3FQmhy0f-1E5tpVHv-21" edge="1">
                    <mxGeometry width="160" relative="1" as="geometry">
                        <mxPoint x="700" y="1070" as="sourcePoint"/>
                        <mxPoint x="575" y="1000" as="targetPoint"/>
                    </mxGeometry>
                </mxCell>
                <mxCell id="KuXRLgFttOdv6xOlEkm7-2" value="«interface» IEmployee" style="swimlane;fontStyle=1;align=center;verticalAlign=top;childLayout=stackLayout;horizontal=1;startSize=26;horizontalStack=0;resizeParent=1;resizeParentMax=0;resizeLast=0;collapsible=1;marginBottom=0;" parent="1" vertex="1">
                    <mxGeometry x="1360" y="330" width="260" height="86" as="geometry"/>
                </mxCell>
                <mxCell id="KuXRLgFttOdv6xOlEkm7-3" value="&lt;&lt;+get&gt;&gt; FirstName: string" style="text;strokeColor=none;fillColor=none;align=left;verticalAlign=top;spacingLeft=4;spacingRight=4;overflow=hidden;rotatable=0;points=[[0,0.5],[1,0.5]];portConstraint=eastwest;" parent="KuXRLgFttOdv6xOlEkm7-2" vertex="1">
                    <mxGeometry y="26" width="260" height="26" as="geometry"/>
                </mxCell>
                <mxCell id="KuXRLgFttOdv6xOlEkm7-6" value="&lt;&lt;+get&gt;&gt; LastName: string" style="text;strokeColor=none;fillColor=none;align=left;verticalAlign=top;spacingLeft=4;spacingRight=4;overflow=hidden;rotatable=0;points=[[0,0.5],[1,0.5]];portConstraint=eastwest;" parent="KuXRLgFttOdv6xOlEkm7-2" vertex="1">
                    <mxGeometry y="52" width="260" height="26" as="geometry"/>
                </mxCell>
                <mxCell id="KuXRLgFttOdv6xOlEkm7-4" value="" style="line;strokeWidth=1;fillColor=none;align=left;verticalAlign=middle;spacingTop=-1;spacingLeft=3;spacingRight=3;rotatable=0;labelPosition=right;points=[];portConstraint=eastwest;" parent="KuXRLgFttOdv6xOlEkm7-2" vertex="1">
                    <mxGeometry y="78" width="260" height="8" as="geometry"/>
                </mxCell>
                <mxCell id="KuXRLgFttOdv6xOlEkm7-8" value="Veterinarian" style="swimlane;fontStyle=1;align=center;verticalAlign=top;childLayout=stackLayout;horizontal=1;startSize=26;horizontalStack=0;resizeParent=1;resizeParentMax=0;resizeLast=0;collapsible=1;marginBottom=0;" parent="1" vertex="1">
                    <mxGeometry x="1830" y="470" width="250" height="164" as="geometry"/>
                </mxCell>
                <mxCell id="KuXRLgFttOdv6xOlEkm7-9" value="&lt;&lt;-set, +get&gt;&gt; FirstName: string" style="text;strokeColor=none;fillColor=none;align=left;verticalAlign=top;spacingLeft=4;spacingRight=4;overflow=hidden;rotatable=0;points=[[0,0.5],[1,0.5]];portConstraint=eastwest;" parent="KuXRLgFttOdv6xOlEkm7-8" vertex="1">
                    <mxGeometry y="26" width="250" height="26" as="geometry"/>
                </mxCell>
                <mxCell id="KuXRLgFttOdv6xOlEkm7-10" value="&lt;&lt;-set, +get&gt;&gt; LastName: string" style="text;strokeColor=none;fillColor=none;align=left;verticalAlign=top;spacingLeft=4;spacingRight=4;overflow=hidden;rotatable=0;points=[[0,0.5],[1,0.5]];portConstraint=eastwest;" parent="KuXRLgFttOdv6xOlEkm7-8" vertex="1">
                    <mxGeometry y="52" width="250" height="26" as="geometry"/>
                </mxCell>
                <mxCell id="KuXRLgFttOdv6xOlEkm7-12" value="" style="line;strokeWidth=1;fillColor=none;align=left;verticalAlign=middle;spacingTop=-1;spacingLeft=3;spacingRight=3;rotatable=0;labelPosition=right;points=[];portConstraint=eastwest;" parent="KuXRLgFttOdv6xOlEkm7-8" vertex="1">
                    <mxGeometry y="78" width="250" height="8" as="geometry"/>
                </mxCell>
                <mxCell id="KuXRLgFttOdv6xOlEkm7-17" value="+ AddAnimalExperience(Animal): void" style="text;strokeColor=none;fillColor=none;align=left;verticalAlign=top;spacingLeft=4;spacingRight=4;overflow=hidden;rotatable=0;points=[[0,0.5],[1,0.5]];portConstraint=eastwest;" parent="KuXRLgFttOdv6xOlEkm7-8" vertex="1">
                    <mxGeometry y="86" width="250" height="26" as="geometry"/>
                </mxCell>
                <mxCell id="KuXRLgFttOdv6xOlEkm7-18" value="+ HasAnimalExerience(Animal): bool" style="text;strokeColor=none;fillColor=none;align=left;verticalAlign=top;spacingLeft=4;spacingRight=4;overflow=hidden;rotatable=0;points=[[0,0.5],[1,0.5]];portConstraint=eastwest;" parent="KuXRLgFttOdv6xOlEkm7-8" vertex="1">
                    <mxGeometry y="112" width="250" height="26" as="geometry"/>
                </mxCell>
                <mxCell id="KuXRLgFttOdv6xOlEkm7-21" value="+ HealAnimal(Animal): bool" style="text;strokeColor=none;fillColor=none;align=left;verticalAlign=top;spacingLeft=4;spacingRight=4;overflow=hidden;rotatable=0;points=[[0,0.5],[1,0.5]];portConstraint=eastwest;" parent="KuXRLgFttOdv6xOlEkm7-8" vertex="1">
                    <mxGeometry y="138" width="250" height="26" as="geometry"/>
                </mxCell>
                <mxCell id="KuXRLgFttOdv6xOlEkm7-15" value="" style="endArrow=block;dashed=1;endFill=0;endSize=12;html=1;exitX=0.5;exitY=0;exitDx=0;exitDy=0;" parent="1" source="KuXRLgFttOdv6xOlEkm7-8" target="KuXRLgFttOdv6xOlEkm7-2" edge="1">
                    <mxGeometry width="160" relative="1" as="geometry">
                        <mxPoint x="2075" y="280" as="sourcePoint"/>
                        <mxPoint x="1885" y="416" as="targetPoint"/>
                        <Array as="points">
                            <mxPoint x="1880" y="373"/>
                        </Array>
                    </mxGeometry>
                </mxCell>
                <mxCell id="KuXRLgFttOdv6xOlEkm7-22" value="" style="endArrow=block;dashed=1;endFill=0;endSize=12;html=1;exitX=0.5;exitY=0;exitDx=0;exitDy=0;" parent="1" source="5lg895d2sWfJ2j3XGG5V-2" target="KuXRLgFttOdv6xOlEkm7-2" edge="1">
                    <mxGeometry width="160" relative="1" as="geometry">
                        <mxPoint x="1575" y="502" as="sourcePoint"/>
                        <mxPoint x="1518.3333333333335" y="416" as="targetPoint"/>
                    </mxGeometry>
                </mxCell>
                <mxCell id="KuXRLgFttOdv6xOlEkm7-24" value="&lt;&lt;interface&gt;&gt; IHireValidator" style="swimlane;fontStyle=1;align=center;verticalAlign=top;childLayout=stackLayout;horizontal=1;startSize=26;horizontalStack=0;resizeParent=1;resizeParentMax=0;resizeLast=0;collapsible=1;marginBottom=0;" parent="1" vertex="1">
                    <mxGeometry x="-70" y="230" width="360" height="60" as="geometry"/>
                </mxCell>
                <mxCell id="KuXRLgFttOdv6xOlEkm7-26" value="" style="line;strokeWidth=1;fillColor=none;align=left;verticalAlign=middle;spacingTop=-1;spacingLeft=3;spacingRight=3;rotatable=0;labelPosition=right;points=[];portConstraint=eastwest;" parent="KuXRLgFttOdv6xOlEkm7-24" vertex="1">
                    <mxGeometry y="26" width="360" height="8" as="geometry"/>
                </mxCell>
                <mxCell id="KuXRLgFttOdv6xOlEkm7-27" value="+ ValidateEmployee(IEmployee, Zoo): List&lt;ValiationError&gt;" style="text;strokeColor=none;fillColor=none;align=left;verticalAlign=top;spacingLeft=4;spacingRight=4;overflow=hidden;rotatable=0;points=[[0,0.5],[1,0.5]];portConstraint=eastwest;" parent="KuXRLgFttOdv6xOlEkm7-24" vertex="1">
                    <mxGeometry y="34" width="360" height="26" as="geometry"/>
                </mxCell>
                <mxCell id="Kl3lhlv03-v8a5bvzwpP-1" value="HireValidatorProvider" style="swimlane;fontStyle=1;align=center;verticalAlign=top;childLayout=stackLayout;horizontal=1;startSize=26;horizontalStack=0;resizeParent=1;resizeParentMax=0;resizeLast=0;collapsible=1;marginBottom=0;" parent="1" vertex="1">
                    <mxGeometry x="-45" y="356" width="310" height="60" as="geometry"/>
                </mxCell>
                <mxCell id="Kl3lhlv03-v8a5bvzwpP-3" value="" style="line;strokeWidth=1;fillColor=none;align=left;verticalAlign=middle;spacingTop=-1;spacingLeft=3;spacingRight=3;rotatable=0;labelPosition=right;points=[];portConstraint=eastwest;" parent="Kl3lhlv03-v8a5bvzwpP-1" vertex="1">
                    <mxGeometry y="26" width="310" height="8" as="geometry"/>
                </mxCell>
                <mxCell id="Kl3lhlv03-v8a5bvzwpP-4" value="+ GetHireValidator(IEmployee): IEmployeeHireValidator" style="text;strokeColor=none;fillColor=none;align=left;verticalAlign=top;spacingLeft=4;spacingRight=4;overflow=hidden;rotatable=0;points=[[0,0.5],[1,0.5]];portConstraint=eastwest;" parent="Kl3lhlv03-v8a5bvzwpP-1" vertex="1">
                    <mxGeometry y="34" width="310" height="26" as="geometry"/>
                </mxCell>
                <mxCell id="Kl3lhlv03-v8a5bvzwpP-6" value="ZooKeeperHireValidator" style="swimlane;fontStyle=1;align=center;verticalAlign=top;childLayout=stackLayout;horizontal=1;startSize=26;horizontalStack=0;resizeParent=1;resizeParentMax=0;resizeLast=0;collapsible=1;marginBottom=0;" parent="1" vertex="1">
                    <mxGeometry x="-260" width="310" height="60" as="geometry"/>
                </mxCell>
                <mxCell id="Kl3lhlv03-v8a5bvzwpP-7" value="" style="line;strokeWidth=1;fillColor=none;align=left;verticalAlign=middle;spacingTop=-1;spacingLeft=3;spacingRight=3;rotatable=0;labelPosition=right;points=[];portConstraint=eastwest;" parent="Kl3lhlv03-v8a5bvzwpP-6" vertex="1">
                    <mxGeometry y="26" width="310" height="8" as="geometry"/>
                </mxCell>
                <mxCell id="Kl3lhlv03-v8a5bvzwpP-8" value="+ ValidateEmployee(IEmployee, Zoo): List&lt;ValiationError&gt;" style="text;strokeColor=none;fillColor=none;align=left;verticalAlign=top;spacingLeft=4;spacingRight=4;overflow=hidden;rotatable=0;points=[[0,0.5],[1,0.5]];portConstraint=eastwest;" parent="Kl3lhlv03-v8a5bvzwpP-6" vertex="1">
                    <mxGeometry y="34" width="310" height="26" as="geometry"/>
                </mxCell>
                <mxCell id="Kl3lhlv03-v8a5bvzwpP-9" style="edgeStyle=orthogonalEdgeStyle;rounded=0;orthogonalLoop=1;jettySize=auto;html=1;" parent="1" source="Kl3lhlv03-v8a5bvzwpP-1" target="KuXRLgFttOdv6xOlEkm7-24" edge="1">
                    <mxGeometry relative="1" as="geometry">
                        <mxPoint x="580" y="391" as="sourcePoint"/>
                        <mxPoint x="60" y="310" as="targetPoint"/>
                    </mxGeometry>
                </mxCell>
                <mxCell id="Kl3lhlv03-v8a5bvzwpP-10" value="Uses" style="edgeLabel;html=1;align=center;verticalAlign=middle;resizable=0;points=[];" parent="Kl3lhlv03-v8a5bvzwpP-9" vertex="1" connectable="0">
                    <mxGeometry x="-0.3352" y="4" relative="1" as="geometry">
                        <mxPoint as="offset"/>
                    </mxGeometry>
                </mxCell>
                <mxCell id="Kl3lhlv03-v8a5bvzwpP-11" value="VeterinarianHireValidator" style="swimlane;fontStyle=1;align=center;verticalAlign=top;childLayout=stackLayout;horizontal=1;startSize=26;horizontalStack=0;resizeParent=1;resizeParentMax=0;resizeLast=0;collapsible=1;marginBottom=0;" parent="1" vertex="1">
                    <mxGeometry x="170" width="310" height="60" as="geometry"/>
                </mxCell>
                <mxCell id="Kl3lhlv03-v8a5bvzwpP-12" value="" style="line;strokeWidth=1;fillColor=none;align=left;verticalAlign=middle;spacingTop=-1;spacingLeft=3;spacingRight=3;rotatable=0;labelPosition=right;points=[];portConstraint=eastwest;" parent="Kl3lhlv03-v8a5bvzwpP-11" vertex="1">
                    <mxGeometry y="26" width="310" height="8" as="geometry"/>
                </mxCell>
                <mxCell id="Kl3lhlv03-v8a5bvzwpP-13" value="+ ValidateEmployee(IEmployee, Zoo): List&lt;ValiationError&gt;" style="text;strokeColor=none;fillColor=none;align=left;verticalAlign=top;spacingLeft=4;spacingRight=4;overflow=hidden;rotatable=0;points=[[0,0.5],[1,0.5]];portConstraint=eastwest;" parent="Kl3lhlv03-v8a5bvzwpP-11" vertex="1">
                    <mxGeometry y="34" width="310" height="26" as="geometry"/>
                </mxCell>
                <mxCell id="Kl3lhlv03-v8a5bvzwpP-18" value="" style="endArrow=block;dashed=1;endFill=0;endSize=12;html=1;entryX=0.5;entryY=0;entryDx=0;entryDy=0;exitX=0.419;exitY=1.154;exitDx=0;exitDy=0;exitPerimeter=0;" parent="1" source="Kl3lhlv03-v8a5bvzwpP-8" target="KuXRLgFttOdv6xOlEkm7-24" edge="1">
                    <mxGeometry width="160" relative="1" as="geometry">
                        <mxPoint x="-50" y="110" as="sourcePoint"/>
                        <mxPoint x="110" y="110" as="targetPoint"/>
                    </mxGeometry>
                </mxCell>
                <mxCell id="Kl3lhlv03-v8a5bvzwpP-19" value="" style="endArrow=block;dashed=1;endFill=0;endSize=12;html=1;entryX=0.683;entryY=0;entryDx=0;entryDy=0;entryPerimeter=0;" parent="1" source="Kl3lhlv03-v8a5bvzwpP-13" target="KuXRLgFttOdv6xOlEkm7-24" edge="1">
                    <mxGeometry width="160" relative="1" as="geometry">
                        <mxPoint x="-120.11000000000013" y="74.0039999999999" as="sourcePoint"/>
                        <mxPoint x="85" y="240" as="targetPoint"/>
                    </mxGeometry>
                </mxCell>
                <mxCell id="Kl3lhlv03-v8a5bvzwpP-22" value="&lt;&lt;abstract&gt;&gt; Medicine" style="swimlane;fontStyle=1;align=center;verticalAlign=top;childLayout=stackLayout;horizontal=1;startSize=26;horizontalStack=0;resizeParent=1;resizeParentMax=0;resizeLast=0;collapsible=1;marginBottom=0;" parent="1" vertex="1">
                    <mxGeometry x="1360" y="1140" width="250" height="34" as="geometry"/>
                </mxCell>
                <mxCell id="Kl3lhlv03-v8a5bvzwpP-23" value="" style="line;strokeWidth=1;fillColor=none;align=left;verticalAlign=middle;spacingTop=-1;spacingLeft=3;spacingRight=3;rotatable=0;labelPosition=right;points=[];portConstraint=eastwest;" parent="Kl3lhlv03-v8a5bvzwpP-22" vertex="1">
                    <mxGeometry y="26" width="250" height="8" as="geometry"/>
                </mxCell>
                <mxCell id="Kl3lhlv03-v8a5bvzwpP-24" value="Antibiotics" style="swimlane;fontStyle=1;align=center;verticalAlign=top;childLayout=stackLayout;horizontal=1;startSize=26;horizontalStack=0;resizeParent=1;resizeParentMax=0;resizeLast=0;collapsible=1;marginBottom=0;" parent="1" vertex="1">
                    <mxGeometry x="1190" y="1252" width="250" height="34" as="geometry"/>
                </mxCell>
                <mxCell id="Kl3lhlv03-v8a5bvzwpP-25" value="" style="line;strokeWidth=1;fillColor=none;align=left;verticalAlign=middle;spacingTop=-1;spacingLeft=3;spacingRight=3;rotatable=0;labelPosition=right;points=[];portConstraint=eastwest;" parent="Kl3lhlv03-v8a5bvzwpP-24" vertex="1">
                    <mxGeometry y="26" width="250" height="8" as="geometry"/>
                </mxCell>
                <mxCell id="Kl3lhlv03-v8a5bvzwpP-26" value="AntiInflammatory" style="swimlane;fontStyle=1;align=center;verticalAlign=top;childLayout=stackLayout;horizontal=1;startSize=26;horizontalStack=0;resizeParent=1;resizeParentMax=0;resizeLast=0;collapsible=1;marginBottom=0;" parent="1" vertex="1">
                    <mxGeometry x="1590" y="1240" width="250" height="34" as="geometry"/>
                </mxCell>
                <mxCell id="Kl3lhlv03-v8a5bvzwpP-27" value="" style="line;strokeWidth=1;fillColor=none;align=left;verticalAlign=middle;spacingTop=-1;spacingLeft=3;spacingRight=3;rotatable=0;labelPosition=right;points=[];portConstraint=eastwest;" parent="Kl3lhlv03-v8a5bvzwpP-26" vertex="1">
                    <mxGeometry y="26" width="250" height="8" as="geometry"/>
                </mxCell>
                <mxCell id="Kl3lhlv03-v8a5bvzwpP-28" value="Extends" style="endArrow=block;endSize=16;endFill=0;html=1;exitX=0.5;exitY=0;exitDx=0;exitDy=0;entryX=0.704;entryY=0.75;entryDx=0;entryDy=0;entryPerimeter=0;" parent="1" source="Kl3lhlv03-v8a5bvzwpP-26" target="Kl3lhlv03-v8a5bvzwpP-23" edge="1">
                    <mxGeometry width="160" relative="1" as="geometry">
                        <mxPoint x="1492.79" y="1296" as="sourcePoint"/>
                        <mxPoint x="1490.0031147540985" y="1160" as="targetPoint"/>
                        <Array as="points"/>
                    </mxGeometry>
                </mxCell>
                <mxCell id="Kl3lhlv03-v8a5bvzwpP-29" value="Extends" style="endArrow=block;endSize=16;endFill=0;html=1;exitX=0.5;exitY=0;exitDx=0;exitDy=0;entryX=0.304;entryY=1;entryDx=0;entryDy=0;entryPerimeter=0;" parent="1" source="Kl3lhlv03-v8a5bvzwpP-24" target="Kl3lhlv03-v8a5bvzwpP-23" edge="1">
                    <mxGeometry width="160" relative="1" as="geometry">
                        <mxPoint x="1645" y="1262" as="sourcePoint"/>
                        <mxPoint x="1495" y="1184" as="targetPoint"/>
                        <Array as="points"/>
                    </mxGeometry>
                </mxCell>
                <mxCell id="Kl3lhlv03-v8a5bvzwpP-30" value="AntiDepression" style="swimlane;fontStyle=1;align=center;verticalAlign=top;childLayout=stackLayout;horizontal=1;startSize=26;horizontalStack=0;resizeParent=1;resizeParentMax=0;resizeLast=0;collapsible=1;marginBottom=0;" parent="1" vertex="1">
                    <mxGeometry x="1360" y="1330" width="250" height="34" as="geometry"/>
                </mxCell>
                <mxCell id="Kl3lhlv03-v8a5bvzwpP-31" value="" style="line;strokeWidth=1;fillColor=none;align=left;verticalAlign=middle;spacingTop=-1;spacingLeft=3;spacingRight=3;rotatable=0;labelPosition=right;points=[];portConstraint=eastwest;" parent="Kl3lhlv03-v8a5bvzwpP-30" vertex="1">
                    <mxGeometry y="26" width="250" height="8" as="geometry"/>
                </mxCell>
                <mxCell id="Kl3lhlv03-v8a5bvzwpP-32" value="Extends" style="endArrow=block;endSize=16;endFill=0;html=1;exitX=0.5;exitY=0;exitDx=0;exitDy=0;" parent="1" source="Kl3lhlv03-v8a5bvzwpP-30" target="Kl3lhlv03-v8a5bvzwpP-22" edge="1">
                    <mxGeometry width="160" relative="1" as="geometry">
                        <mxPoint x="1355" y="1260" as="sourcePoint"/>
                        <mxPoint x="1446" y="1184" as="targetPoint"/>
                        <Array as="points"/>
                    </mxGeometry>
                </mxCell>
                <mxCell id="Kl3lhlv03-v8a5bvzwpP-33" value="" style="endArrow=open;endFill=1;endSize=12;html=1;entryX=0.516;entryY=0.676;entryDx=0;entryDy=0;entryPerimeter=0;" parent="1" source="Kl3lhlv03-v8a5bvzwpP-21" target="Kl3lhlv03-v8a5bvzwpP-22" edge="1">
                    <mxGeometry width="160" relative="1" as="geometry">
                        <mxPoint x="730" y="679" as="sourcePoint"/>
                        <mxPoint x="1495" y="820" as="targetPoint"/>
                        <Array as="points">
                            <mxPoint x="760" y="1030"/>
                        </Array>
                    </mxGeometry>
                </mxCell>
                <mxCell id="Kl3lhlv03-v8a5bvzwpP-36" value="&lt;&lt;abstract&gt;&gt; HireValidator" style="swimlane;fontStyle=1;align=center;verticalAlign=top;childLayout=stackLayout;horizontal=1;startSize=26;horizontalStack=0;resizeParent=1;resizeParentMax=0;resizeLast=0;collapsible=1;marginBottom=0;" parent="1" vertex="1">
                    <mxGeometry x="-120" y="-200" width="470" height="60" as="geometry"/>
                </mxCell>
                <mxCell id="Kl3lhlv03-v8a5bvzwpP-37" value="" style="line;strokeWidth=1;fillColor=none;align=left;verticalAlign=middle;spacingTop=-1;spacingLeft=3;spacingRight=3;rotatable=0;labelPosition=right;points=[];portConstraint=eastwest;" parent="Kl3lhlv03-v8a5bvzwpP-36" vertex="1">
                    <mxGeometry y="26" width="470" height="8" as="geometry"/>
                </mxCell>
                <mxCell id="Kl3lhlv03-v8a5bvzwpP-38" value="+ &lt;&lt;abstract&gt;&gt; ValidateEmployee(IEmployee, Zoo): List&lt;ValiationError&gt;" style="text;strokeColor=none;fillColor=none;align=left;verticalAlign=top;spacingLeft=4;spacingRight=4;overflow=hidden;rotatable=0;points=[[0,0.5],[1,0.5]];portConstraint=eastwest;" parent="Kl3lhlv03-v8a5bvzwpP-36" vertex="1">
                    <mxGeometry y="34" width="470" height="26" as="geometry"/>
                </mxCell>
                <mxCell id="Kl3lhlv03-v8a5bvzwpP-39" value="Use" style="endArrow=open;endSize=12;dashed=1;html=1;exitX=0.5;exitY=0;exitDx=0;exitDy=0;entryX=0.671;entryY=1.109;entryDx=0;entryDy=0;entryPerimeter=0;" parent="1" source="Kl3lhlv03-v8a5bvzwpP-11" target="Kl3lhlv03-v8a5bvzwpP-38" edge="1">
                    <mxGeometry width="160" relative="1" as="geometry">
                        <mxPoint x="150" y="-60" as="sourcePoint"/>
                        <mxPoint x="310" y="-60" as="targetPoint"/>
                    </mxGeometry>
                </mxCell>
                <mxCell id="Kl3lhlv03-v8a5bvzwpP-40" value="Use" style="endArrow=open;endSize=12;dashed=1;html=1;exitX=0.5;exitY=0;exitDx=0;exitDy=0;entryX=0.283;entryY=1.154;entryDx=0;entryDy=0;entryPerimeter=0;" parent="1" source="Kl3lhlv03-v8a5bvzwpP-6" target="Kl3lhlv03-v8a5bvzwpP-38" edge="1">
                    <mxGeometry width="160" relative="1" as="geometry">
                        <mxPoint x="334.99999999999955" y="10" as="sourcePoint"/>
                        <mxPoint x="123.73239436619679" y="-190" as="targetPoint"/>
                    </mxGeometry>
                </mxCell>
                <mxCell id="Kl3lhlv03-v8a5bvzwpP-41" value="Lion" style="swimlane;fontStyle=1;align=center;verticalAlign=top;childLayout=stackLayout;horizontal=1;startSize=26;horizontalStack=0;resizeParent=1;resizeParentMax=0;resizeLast=0;collapsible=1;marginBottom=0;" parent="1" vertex="1">
                    <mxGeometry x="-430" y="770" width="210" height="34" as="geometry"/>
                </mxCell>
                <mxCell id="Kl3lhlv03-v8a5bvzwpP-42" value="" style="line;strokeWidth=1;fillColor=none;align=left;verticalAlign=middle;spacingTop=-1;spacingLeft=3;spacingRight=3;rotatable=0;labelPosition=right;points=[];portConstraint=eastwest;" parent="Kl3lhlv03-v8a5bvzwpP-41" vertex="1">
                    <mxGeometry y="26" width="210" height="8" as="geometry"/>
                </mxCell>
                <mxCell id="Kl3lhlv03-v8a5bvzwpP-43" value="Extends" style="endArrow=block;endSize=16;endFill=0;html=1;" parent="1" source="Kl3lhlv03-v8a5bvzwpP-41" target="LWB3FQmhy0f-1E5tpVHv-27" edge="1">
                    <mxGeometry width="160" relative="1" as="geometry">
                        <mxPoint x="-300" y="944" as="sourcePoint"/>
                        <mxPoint x="-207" y="847.9999999999995" as="targetPoint"/>
                        <Array as="points">
                            <mxPoint x="-210" y="901"/>
                        </Array>
                    </mxGeometry>
                </mxCell>
            </root>
        </mxGraphModel>
    </diagram>
</mxfile>